<svg width="244" height="50" viewBox="0 0 244 50" fill="none" xmlns="http://www.w3.org/2000/svg">
<path d="M72.0992 13.2838C72.0992 15.4392 71.3623 17.2354 69.8886 18.6723C68.4394 20.0845 66.2165 20.7905 63.2199 20.7905H58.2829V31.6047H54.9301V5.70271H63.2199C66.1183 5.70271 68.3166 6.40879 69.8149 7.82095C71.3377 9.23311 72.0992 11.0541 72.0992 13.2838ZM63.2199 18.0034C65.0866 18.0034 66.4621 17.5946 67.3464 16.777C68.2306 15.9595 68.6727 14.7951 68.6727 13.2838C68.6727 10.0878 66.8551 8.48987 63.2199 8.48987H58.2829V18.0034H63.2199Z" fill="#897B6F"/>
<path d="M90.5246 31.6047L84.4086 21.0135H80.3558V31.6047H77.0031V5.70271H85.2928C87.2333 5.70271 88.8666 6.03717 90.193 6.70609C91.5439 7.37501 92.551 8.27929 93.2142 9.41893C93.8773 10.5586 94.2089 11.8592 94.2089 13.321C94.2089 15.1047 93.6931 16.6779 92.6615 18.0405C91.6545 19.4032 90.1316 20.3074 88.0929 20.7534L94.5405 31.6047H90.5246ZM80.3558 18.3007H85.2928C87.1104 18.3007 88.4736 17.8547 89.3825 16.9628C90.2913 16.0462 90.7457 14.8322 90.7457 13.321C90.7457 11.7849 90.2913 10.5957 89.3825 9.75339C88.4982 8.91104 87.135 8.48987 85.2928 8.48987H80.3558V18.3007Z" fill="#897B6F"/>
<path d="M111.798 31.8649C109.415 31.8649 107.242 31.3074 105.277 30.1926C103.312 29.0529 101.752 27.4797 100.598 25.473C99.4677 23.4414 98.9027 21.1622 98.9027 18.6351C98.9027 16.1081 99.4677 13.8412 100.598 11.8345C101.752 9.80293 103.312 8.22974 105.277 7.11487C107.242 5.97523 109.415 5.40541 111.798 5.40541C114.205 5.40541 116.391 5.97523 118.356 7.11487C120.321 8.22974 121.868 9.79055 122.998 11.7973C124.128 13.8041 124.693 16.0833 124.693 18.6351C124.693 21.1869 124.128 23.4662 122.998 25.473C121.868 27.4797 120.321 29.0529 118.356 30.1926C116.391 31.3074 114.205 31.8649 111.798 31.8649ZM111.798 28.9291C113.591 28.9291 115.2 28.5079 116.624 27.6655C118.074 26.8232 119.203 25.6216 120.014 24.0608C120.849 22.5 121.267 20.6914 121.267 18.6351C121.267 16.5541 120.849 14.7455 120.014 13.2095C119.203 11.6487 118.086 10.4471 116.661 9.60474C115.237 8.76239 113.616 8.34122 111.798 8.34122C109.98 8.34122 108.359 8.76239 106.935 9.60474C105.51 10.4471 104.38 11.6487 103.545 13.2095C102.734 14.7455 102.329 16.5541 102.329 18.6351C102.329 20.6914 102.734 22.5 103.545 24.0608C104.38 25.6216 105.51 26.8232 106.935 27.6655C108.384 28.5079 110.005 28.9291 111.798 28.9291Z" fill="#897B6F"/>
<path d="M143.768 28.8547H152.758V31.6047H140.415V5.70271H143.768V28.8547Z" fill="#897B6F"/>
<path d="M160.408 8.45271V17.1115H169.766V19.8987H160.408V28.8176H170.872V31.6047H157.055V5.66555H170.872V8.45271H160.408Z" fill="#897B6F"/>
<path d="M196.135 13.2095C195.423 11.6982 194.391 10.5338 193.04 9.71622C191.689 8.87388 190.117 8.45271 188.324 8.45271C186.531 8.45271 184.91 8.87388 183.461 9.71622C182.036 10.5338 180.906 11.723 180.071 13.2838C179.261 14.8198 178.855 16.6036 178.855 18.6351C178.855 20.6667 179.261 22.4505 180.071 23.9865C180.906 25.5225 182.036 26.7117 183.461 27.5541C184.91 28.3716 186.531 28.7804 188.324 28.7804C190.83 28.7804 192.893 28.0248 194.514 26.5135C196.135 25.0023 197.081 22.9583 197.351 20.3818H187.108V17.6318H200.925V20.2331C200.728 22.3637 200.065 24.321 198.935 26.1047C197.805 27.8637 196.319 29.2635 194.477 30.3041C192.635 31.3198 190.584 31.8277 188.324 31.8277C185.942 31.8277 183.768 31.2703 181.803 30.1554C179.838 29.0158 178.278 27.4426 177.124 25.4358C175.994 23.4291 175.429 21.1622 175.429 18.6351C175.429 16.1081 175.994 13.8412 177.124 11.8345C178.278 9.80293 179.838 8.22974 181.803 7.11487C183.768 5.97523 185.942 5.40541 188.324 5.40541C191.051 5.40541 193.458 6.08672 195.546 7.44933C197.658 8.81194 199.193 10.732 200.151 13.2095H196.135Z" fill="#897B6F"/>
<path d="M221.274 25.8446H210.074L208.01 31.6047H204.473L213.758 5.85136H217.626L226.874 31.6047H223.337L221.274 25.8446ZM220.316 23.0946L215.674 10.0135L211.032 23.0946H220.316Z" fill="#897B6F"/>
<path d="M235.01 28.8547H244V31.6047H231.658V5.70271H235.01V28.8547Z" fill="#897B6F"/>
<path d="M60.527 40.3243C60.4131 40.1351 60.2557 39.9899 60.0547 39.8885C59.8605 39.7872 59.6294 39.7365 59.3614 39.7365C58.8657 39.7365 58.4738 39.8987 58.1858 40.223C57.9044 40.5473 57.7637 40.9831 57.7637 41.5304C57.7637 42.1453 57.9145 42.6149 58.2159 42.9392C58.524 43.2568 58.9695 43.4155 59.5523 43.4155C60.2423 43.4155 60.7347 43.1014 61.0294 42.473H59.0499V41.0439H62.7275V42.9696C62.5735 43.348 62.3457 43.7027 62.0443 44.0338C61.7495 44.3649 61.3744 44.6385 60.9189 44.8547C60.4634 45.0642 59.9442 45.1689 59.3614 45.1689C58.6513 45.1689 58.0216 45.0169 57.4723 44.7128C56.9297 44.402 56.5077 43.973 56.2063 43.4257C55.9115 42.8716 55.7641 42.2399 55.7641 41.5304C55.7641 40.8277 55.9115 40.2027 56.2063 39.6554C56.5077 39.1014 56.9297 38.6723 57.4723 38.3682C58.0149 38.0574 58.6413 37.902 59.3514 37.902C60.2423 37.902 60.9792 38.1182 61.562 38.5507C62.1447 38.9831 62.5065 39.5743 62.6472 40.3243H60.527Z" fill="#897B6F"/>
<path d="M80.26 45.1182L78.8533 42.4831H78.6422V45.1182H76.6728V37.973H79.7777C80.3471 37.973 80.8294 38.0743 81.2246 38.277C81.6199 38.473 81.918 38.7466 82.1189 39.098C82.3199 39.4426 82.4204 39.8311 82.4204 40.2635C82.4204 40.75 82.2864 41.1791 82.0184 41.5507C81.7572 41.9155 81.372 42.1757 80.8629 42.3311L82.4606 45.1182H80.26ZM78.6422 41.125H79.6169C79.8849 41.125 80.0858 41.0608 80.2198 40.9324C80.3538 40.8041 80.4208 40.6182 80.4208 40.375C80.4208 40.1453 80.3504 39.9662 80.2098 39.8378C80.0758 39.7027 79.8782 39.6351 79.6169 39.6351H78.6422V41.125Z" fill="#897B6F"/>
<path d="M99.7749 45.1892C99.1118 45.1892 98.5022 45.0338 97.9462 44.723C97.3902 44.4054 96.948 43.9696 96.6198 43.4155C96.2983 42.8547 96.1375 42.223 96.1375 41.5203C96.1375 40.8176 96.2983 40.1892 96.6198 39.6351C96.948 39.0743 97.3902 38.6385 97.9462 38.3277C98.5022 38.0169 99.1118 37.8615 99.7749 37.8615C100.445 37.8615 101.054 38.0169 101.604 38.3277C102.16 38.6385 102.598 39.0743 102.92 39.6351C103.242 40.1892 103.402 40.8176 103.402 41.5203C103.402 42.223 103.242 42.8547 102.92 43.4155C102.598 43.9696 102.16 44.4054 101.604 44.723C101.048 45.0338 100.438 45.1892 99.7749 45.1892ZM99.7749 43.3446C100.277 43.3446 100.673 43.1791 100.961 42.848C101.255 42.5169 101.403 42.0743 101.403 41.5203C101.403 40.9527 101.255 40.5068 100.961 40.1824C100.673 39.8514 100.277 39.6858 99.7749 39.6858C99.2658 39.6858 98.8672 39.8514 98.5792 40.1824C98.2911 40.5068 98.1471 40.9527 98.1471 41.5203C98.1471 42.0811 98.2911 42.527 98.5792 42.8581C98.8672 43.1824 99.2658 43.3446 99.7749 43.3446Z" fill="#897B6F"/>
<path d="M119.28 37.973V42.1182C119.28 42.5034 119.367 42.8007 119.541 43.0101C119.722 43.2196 119.993 43.3243 120.355 43.3243C120.716 43.3243 120.988 43.2196 121.169 43.0101C121.356 42.7939 121.45 42.4966 121.45 42.1182V37.973H123.419V42.1182C123.419 42.7737 123.282 43.3345 123.007 43.8007C122.733 44.2601 122.358 44.6081 121.882 44.8446C121.413 45.0743 120.891 45.1892 120.315 45.1892C119.738 45.1892 119.223 45.0743 118.767 44.8446C118.318 44.6081 117.963 44.2601 117.702 43.8007C117.447 43.3412 117.32 42.7804 117.32 42.1182V37.973H119.28Z" fill="#897B6F"/>
<path d="M143.163 40.3547C143.163 40.7872 143.063 41.1824 142.862 41.5405C142.668 41.8919 142.369 42.1757 141.968 42.3919C141.572 42.6014 141.087 42.7061 140.511 42.7061H139.536V45.1182H137.566V37.973H140.511C141.08 37.973 141.562 38.0743 141.957 38.277C142.359 38.4797 142.661 38.7601 142.862 39.1182C143.063 39.4764 143.163 39.8885 143.163 40.3547ZM140.32 41.125C140.876 41.125 141.154 40.8682 141.154 40.3547C141.154 39.8345 140.876 39.5743 140.32 39.5743H139.536V41.125H140.32Z" fill="#897B6F"/>
<rect x="37.5133" width="3.3494" height="50" rx="1.6747" fill="#897B6F"/>
<rect x="31.4843" y="2.7027" width="2.67952" height="44.5946" rx="1.33976" fill="#897B6F"/>
<rect x="25.4554" y="5.40541" width="2.67952" height="39.1892" rx="1.33976" fill="#897B6F"/>
<rect x="18.7566" y="7.43243" width="2.67952" height="35.1351" rx="1.33976" fill="#897B6F"/>
<rect x="12.7277" y="10.1351" width="2.00964" height="29.7297" rx="1.00482" fill="#897B6F"/>
<rect x="6.02893" y="12.8378" width="2.00964" height="24.3243" rx="1.00482" fill="#897B6F"/>
<rect y="15.5405" width="2.00964" height="18.9189" rx="1.00482" fill="#897B6F"/>
</svg>
